<?xml version="1.0" encoding="UTF-8"?>
<svg id="_레이어_1" data-name="레이어_1" xmlns="http://www.w3.org/2000/svg" width="1280" height="720" version="1.1" viewBox="0 0 1280 720">
  <!-- Generator: Adobe Illustrator 30.2.1, SVG Export Plug-In . SVG Version: 2.1.1 Build 1)  -->
  <g>
    <path d="M683.13,251.02c-62.89.28-83.76,42.34-91.84,49.68l-.03-.03c-.02.02-.04.05-.08.08-1.29,1.11-15.39,13.4-23.17,25.92-9.77,15.67-14.87,37.76-3.04,61.7,8.66,17.44,15.43,22.61,25.37,31.4l.04.11c7.01,5.41,29.66,49.48,93.58,49.48s108.56-51.86,108.56-111.11-51.08-107.51-109.39-107.23ZM686.16,454.35c-37.44,0-65.5-15.84-89.15-35.48-2.69-2.27-4.02-6.29-3.11-7.82-.42-.32-1.12-.84-1.78-1.4-.03-.03-.07-.03-.07-.03-.38-.32-.73-.6-.98-.8-10.78-8.76-23.97-27.82-23.45-51.34.53-22.61,20.38-40.93,22.86-43.16.04-.04.08-.07.11-.09l.02.02c.2-.2.7-.65,1.16-.49h.01l.03-.03-.04-.04c-.28-.45-2.41-4.22,5.83-11.51,8.83-7.79,42.89-35.11,84.97-36.71,20.83-.8,44.36,7.8,62.82,24.11,18.81,16.61,32.34,41.22,32.34,72.02,0,61.03-54.12,92.75-91.57,92.75Z" fill="#ecfffd"/>
    <path d="M777.73,361.6c0,61.03-54.12,92.75-91.57,92.75s-65.5-15.84-89.15-35.48c-2.69-2.27-4.02-6.29-3.11-7.82.31-.52.87-.73,1.71-.56,2.62.59,6.14,6.32,9.42,8.17,0,0,0,.03.04.03.1.07.24.11.35.18,2.12,1.01,5.82.97,6.21.38,1.36-2.16,1.39-5.65,2.37-4.26,0,.04.03.04.03.07,1.02,1.61,1.4,4.33,2.76,1.89v-.04c.04,0,.04-.03.04-.03.55-1.05,1.04-1.54,1.5-1.57.66-.11,1.15.69,1.53,1.74.6,1.82,1.4,5.58,1.78,3.39.21-1.02.39-2.34.66-3.08.22-.59.47-.85.83-.41.04.04.08.1.12.17v.01c.11.21.28.49.42.9,1.1,2.93,1.86,6.37,4,10.29l.01.11c.03,0,.03.03.07.03.14.32.31.63.52.94,2.58,4.4,18.64,20.98,58.49,20.98s87.13-35.95,87.13-88.18c0-28.59-11.31-53.65-30.16-70.49l1.66-2.13c18.81,16.61,32.34,41.22,32.34,72.02Z" fill="#ff7f6a"/>
    <path d="M743.73,291.71c18.85,16.84,30.16,41.9,30.16,70.49,0,52.23-47.25,88.18-87.13,88.18s-55.91-16.58-58.49-20.98c-.21-.31-.38-.62-.52-.94,14.97,9.84,37.69,17.76,55.76,17.76,48.16,0,86.4-37.23,86.4-85.18s-39.05-86.85-87.24-86.85c0,0-37.51.04-62.77,27.53.14-1.85.42-3.8.9-4.88,1.02-2.2,22.9-27.4,62.75-27.4,23.79,0,44.57,8.31,60.18,22.27Z" fill="#865445"/>
    <path d="M769.91,361.04c0,47.95-38.24,85.18-86.4,85.18-18.07,0-40.79-7.92-55.76-17.76-.03-.05-.05-.09-.08-.14l-2.07-33.8c4.71-6.85,8.72-17.97,9.3-30.16.74-14.86-5.33-31.88-13.52-38.53l-1.48-24.11c25.26-27.49,62.77-27.53,62.77-27.53,48.19,0,87.24,38.91,87.24,86.85Z" fill="#fffef2"/>
    <path d="M745.39,289.58l-1.66,2.13c-15.61-13.96-36.39-22.27-60.18-22.27-39.85,0-61.73,25.2-62.75,27.4-.48,1.08-.76,3.03-.9,4.88-.21,1.99-.35,3.88-.67,4.61-.1.28-.28.49-.48.63-.32.21-.77.17-1.19.07-.45-.11-.91-.35-1.33-.49-.52-.21-1.04-.18-1.5.1v.04c-.45.21-.8.66-.9,1.25-.21,1.19-1.44,2.76-1.82,1.19-.07-.24-.14-.42-.24-.56v-.03c-.49-.67-1.22.21-1.57,1.18-.25.81-1.02,1.54-1.5,1.36h-.01c-.24-.08-.41-.35-.48-.94-.21-1.81-1.01-3.8-2.62-5.58-1.61-1.82-2.79-2.02-3.8-1.22-.07.07-.14.1-.21.21-.07.03-.11.1-.18.17-.28.25-.45.52-.59.87-.11.14-.18.28-.24.42-.63,1.08-1.26,2.38-1.99,3.32-1.19,1.6-6.81,5.37-6.81,5.37-.28-.45-2.41-4.22,5.83-11.51,8.83-7.79,42.89-35.11,84.97-36.71,20.83-.8,44.36,7.8,62.82,24.11Z" fill="#ff7f6a"/>
    <path d="M621.38,325.83c8.19,6.65,14.26,23.67,13.52,38.53-.58,12.19-4.59,23.31-9.3,30.16l-4.22-68.69Z" fill="#d7f3fd"/>
    <path d="M627.67,428.32c.03.05.05.09.08.14-.04,0-.04-.03-.07-.03l-.01-.11Z" fill="#fff"/>
    <path d="M625.6,394.52c-.96,1.41-1.95,2.63-2.95,3.65-.76.81-1.57,1.5-2.33,1.99-.81.57-1.59.98-2.36,1.22-.49.16-.97.25-1.45.28-.8.04-1.57-.14-2.3-.52-.14-.07-.28-.14-.38-.21-.56-.35-1.05-.73-1.54-1.19-6.07-5.75-9.07-22.05-9.25-39.64-.17-16.19,4.12-27.5,7.51-33.08.66-1.12,1.32-2.02,1.88-2.69v-.03c.8-.91,1.43-1.36,1.78-1.36h.07c.52,0,1.03.06,1.54.14.17.03.34.06.52.1.49.11.94.28,1.43.49.87.32,1.71.77,2.55,1.36.36.25.71.51,1.06.8l4.22,68.69Z" fill="#d7f3fd"/>
  </g>
  <g>
    <path d="M591.21,300.78c.03-.02.05-.05.08-.08,8.08-7.34,28.95-49.4,91.84-49.68,58.31-.28,109.39,47.98,109.39,107.23s-44.66,111.11-108.56,111.11-86.57-44.07-93.58-49.48l-.04-.11c-9.94-8.79-16.71-13.96-25.37-31.4-11.83-23.94-6.73-46.03,3.04-61.7,7.78-12.52,21.88-24.81,23.17-25.92.04-.03.06-.06.08-.08.01-.02.02-.03.02-.03" fill="none" stroke="#231815" stroke-miterlimit="10"/>
    <path d="M627.68,428.43c.03,0,.03.03.07.03,14.97,9.84,37.69,17.76,55.76,17.76,48.16,0,86.4-37.23,86.4-85.18s-39.05-86.85-87.24-86.85c0,0-37.51.04-62.77,27.53" fill="none" stroke="#231815" stroke-miterlimit="10"/>
    <path d="M614,414.99c-.98-1.39-1.01,2.1-2.37,4.26-.39.59-4.09.63-6.21-.38-.11-.07-.25-.11-.35-.18-.04,0-.04-.03-.04-.03-3.28-1.85-6.8-7.58-9.42-8.17-.84-.17-1.4.04-1.71.56-.42-.32-1.12-.84-1.78-1.4-.03-.03-.07-.03-.07-.03-.38-.32-.73-.6-.98-.8-10.78-8.76-23.97-27.82-23.45-51.34.53-22.61,20.38-40.93,22.86-43.16.04-.04.08-.07.11-.09l.02.02c.2-.2.7-.65,1.16-.49h.01l.03-.03-.04-.04s5.62-3.77,6.81-5.37c.73-.94,1.36-2.24,1.99-3.32.06-.14.13-.28.24-.42.21-.35.38-.62.59-.87.07-.07.11-.14.18-.17.07-.11.14-.14.21-.21,1.01-.8,2.19-.6,3.8,1.22,1.61,1.78,2.41,3.77,2.62,5.58.07.59.24.86.48.94l-.06.14,1.92,15.81c-3.39,5.58-7.68,16.89-7.51,33.08.18,17.59,3.18,33.89,9.25,39.64.28,1.47,1.47,12.88,1.71,15.25Z" fill="#fffef2" stroke="#231815" stroke-miterlimit="10"/>
    <path d="M590.72,314.11s-.05.04-.13.12" fill="none" stroke="#231815" stroke-miterlimit="10"/>
    <path d="M601.58,303.54c.35-.28.8-.49,1.36-.63" fill="none" stroke="#231815" stroke-miterlimit="10"/>
    <path d="M600.81,304.58c.14-.35.31-.62.59-.87" fill="none" stroke="#231815" stroke-miterlimit="10"/>
    <path d="M590.61,314.25c-.06.06-.09.1-.09.1" fill="none" stroke="#231815" stroke-miterlimit="10"/>
    <line x1="610.2" y1="309.71" x2="612.43" y2="324.3" fill="none" stroke="#231815" stroke-miterlimit="10"/>
    <line x1="611.77" y1="308.56" x2="614.28" y2="322.94" fill="none" stroke="#231815" stroke-miterlimit="10"/>
    <line x1="614.73" y1="306.68" x2="616.37" y2="323.04" fill="none" stroke="#231815" stroke-miterlimit="10"/>
    <line x1="614.7" y1="306.29" x2="614.73" y2="306.64" fill="none" stroke="#231815" stroke-miterlimit="10"/>
    <polyline points="617.56 306.82 617.56 307.03 617.8 323.6" fill="none" stroke="#231815" stroke-miterlimit="10"/>
    <path d="M614.03,415.41s0-.14-.03-.42" fill="none" stroke="#231815" stroke-miterlimit="10"/>
    <line x1="616.79" y1="416.91" x2="613.83" y2="400.93" fill="none" stroke="#231815" stroke-miterlimit="10"/>
    <polyline points="618.47 416.32 618.33 415.31 616.51 401.66" fill="none" stroke="#231815" stroke-miterlimit="10"/>
    <line x1="620.18" y1="416.88" x2="618.08" y2="401.73" fill="none" stroke="#231815" stroke-miterlimit="10"/>
    <line x1="622.24" y1="417.33" x2="620.39" y2="400.27" fill="none" stroke="#231815" stroke-miterlimit="10"/>
    <line x1="622.65" y1="398.17" x2="623.32" y2="417.09" fill="none" stroke="#231815" stroke-miterlimit="10"/>
    <polyline points="618.75 306.92 618.75 306.96 620.39 324.93" fill="none" stroke="#231815" stroke-miterlimit="10"/>
    <path d="M608.69,311.07h.01c.48.18,1.25-.55,1.5-1.36.35-.97,1.08-1.85,1.57-1.18v.03c.1.14.17.32.24.56.38,1.57,1.61,0,1.82-1.19.1-.59.45-1.04.9-1.25v-.04c.46-.28.98-.31,1.5-.1.42.14.88.38,1.33.49.42.1.87.14,1.19-.07.2-.14.38-.35.48-.63.32-.73.46-2.62.67-4.61.14-1.85.42-3.8.9-4.88,1.02-2.2,22.9-27.4,62.75-27.4,23.79,0,44.57,8.31,60.18,22.27,18.85,16.84,30.16,41.9,30.16,70.49,0,52.23-47.25,88.18-87.13,88.18s-55.91-16.58-58.49-20.98c-.21-.31-.38-.62-.52-.94-.03-.05-.05-.09-.08-.14-2.14-3.92-2.9-7.36-4-10.29-.14-.41-.31-.69-.42-.9v-.01c-.04-.07-.08-.13-.12-.17-.36-.44-.61-.18-.83.41-.27.74-.45,2.06-.66,3.08-.38,2.19-1.18-1.57-1.78-3.39-.38-1.05-.87-1.85-1.53-1.74-.46.03-.95.52-1.5,1.57,0,0,0,.03-.04.03v.04c-1.36,2.44-1.74-.28-2.76-1.89,0-.03-.03-.03-.03-.07" fill="none" stroke="#231815" stroke-miterlimit="10"/>
    <path d="M593.9,411.05c-.91,1.53.42,5.55,3.11,7.82,23.65,19.64,51.71,35.48,89.15,35.48s91.57-31.72,91.57-92.75c0-30.8-13.53-55.41-32.34-72.02-18.46-16.31-41.99-24.91-62.82-24.11-42.08,1.6-76.14,28.92-84.97,36.71-8.24,7.29-6.11,11.06-5.83,11.51" fill="none" stroke="#231815" stroke-miterlimit="10"/>
    <path d="M634.9,364.36c-.58,12.19-4.59,23.31-9.3,30.16-.96,1.41-1.95,2.63-2.95,3.65-.76.81-1.57,1.5-2.33,1.99-.81.57-1.59.98-2.36,1.22-.49.16-.97.25-1.45.28-.8.04-1.57-.14-2.3-.52-.14-.07-.28-.14-.38-.21-.56-.35-1.05-.73-1.54-1.19-6.07-5.75-9.07-22.05-9.25-39.64-.17-16.19,4.12-27.5,7.51-33.08.66-1.12,1.32-2.02,1.88-2.69v-.03c.8-.91,1.43-1.36,1.78-1.36h.07c.52,0,1.03.06,1.54.14.17.03.34.06.52.1.49.11.94.28,1.43.49.87.32,1.71.77,2.55,1.36.36.25.71.51,1.06.8,8.19,6.65,14.26,23.67,13.52,38.53Z" fill="none" stroke="#231815" stroke-miterlimit="10"/>
  </g>
</svg>